#!OML:ASF F:\VICON\USERDATA\INSTALL\rory3\rory3.ASF
:FULLY-SPECIFIED
:DEGREES
1278
root -3.07074 17.7229 -4.59513 4.79221 -47.2719 -1.82949
lowerback 6.32146 -1.64686 -2.21412
upperback 1.1451 -2.28483 3.25541
thorax -2.14026 -1.13226 4.79858
lowerneck -20.5832 -2.22124 -9.45473
upperneck 24.7039 -3.21971 10.7852
head 11.8395 -1.01995 5.14512
rclavicle 5.25785e-014 2.38542e-014
rhumerus 56.1779 -38.1503 -25.2642
rradius 56.2825
rwrist 5.48233
rhand -46.1604 1.14678
rfingers 7.12502
rthumb -18.9 -27.955
lclavicle 5.25785e-014 2.38542e-014
lhumerus 54.6525 36.9567 51.6176
lradius 51.4232
lwrist 15.9314
lhand -24.4757 24.7801
lfingers 7.12502
lthumb 2.01789 54.7503
rfemur -15.2315 -1.01957 19.3668
rtibia 33.5405
rfoot -20.6871 -7.80453
rtoes 2.95629
lfemur -11.6397 0.195111 -13.2325
ltibia 36.8373
lfoot -17.2253 6.1776
ltoes -11.5173
1279
root -3.09903 17.7287 -4.61397 4.73332 -47.7386 -1.71457
lowerback 6.4493 -1.56528 -2.17603
upperback 1.25967 -2.17664 3.31345
thorax -2.103 -1.08188 4.8319
lowerneck -20.7258 -2.21708 -9.242
upperneck 24.8558 -3.1301 10.26
head 11.9022 -1.02197 4.92576
rclavicle -4.28381e-014 -1.27222e-014
rhumerus 56.503 -36.4941 -25.6304
rradius 55.7537
rwrist 5.94827
rhand -45.7197 1.344
rfingers 7.12502
rthumb -18.4761 -27.7986
lclavicle -4.28381e-014 -1.27222e-014
lhumerus 53.0147 35.5005 51.3661
lradius 51.3874
lwrist 16.1015
lhand -24.1097 25.2361
lfingers 7.12502
lthumb 2.37142 55.2027
rfemur -15.3022 -0.884859 19.3876
rtibia 33.5511
rfoot -20.5134 -7.65688
rtoes 2.79201
lfemur -12.4664 0.302045 -13.6284
ltibia 37.6594
lfoot -17.0465 5.53893
ltoes -13.2469
1280
root -3.12594 17.7392 -4.6366 4.72452 -48.1443 -1.56622
lowerback 6.59073 -1.5389 -2.23148
upperback 1.32163 -2.14708 3.38294
thorax -2.11595 -1.06823 4.9381
lowerneck -20.9227 -2.07217 -8.98041
upperneck 25.1707 -2.86833 9.74883
head 12.0189 -0.942079 4.73871
rclavicle -1.68967e-014 -7.95139e-016
rhumerus 56.7522 -34.7591 -26.0134
rradius 55.3061
rwrist 6.11725
rhand -45.0435 1.53564
rfingers 7.12502
rthumb -17.8255 -27.6674
lclavicle -1.68967e-014 -7.95139e-016
lhumerus 51.1657 33.9998 50.8672
lradius 51.4273
lwrist 16.2895
lhand -24.0501 25.478
lfingers 7.12502
lthumb 2.42895 55.4439
rfemur -15.4482 -0.86054 19.3928
rtibia 33.5266
rfoot -20.3517 -7.44859
rtoes 3.0492
lfemur -13.4062 0.252074 -14.006
ltibia 38.4035
lfoot -16.8964 4.8296
ltoes -13.3544
1281
root -3.15249 17.7467 -4.65139 4.82487 -48.4487 -1.51499
lowerback 6.63055 -1.56103 -2.1244
upperback 1.43331 -2.17229 3.41488
thorax -2.02292 -1.08598 4.91133
lowerneck -21.1262 -1.90313 -8.78378
upperneck 25.265 -2.61439 9.52036
head 12.0601 -0.834215 4.66288
rclavicle 4.35338e-014 1.27222e-014
rhumerus 56.8933 -33.0722 -26.3677
rradius 54.8261
rwrist 6.38073
rhand -44.5629 1.76499
rfingers 7.12502
rthumb -17.363 -27.4795
lclavicle 4.35338e-014 1.27222e-014
lhumerus 49.3691 32.4221 50.0758
lradius 51.412
lwrist 16.5392
lhand -24.1793 25.5761
lfingers 7.12502
lthumb 2.30417 55.5434
rfemur -15.5969 -0.774089 19.4499
rtibia 33.4913
rfoot -20.3112 -7.24007
rtoes 3.84188
lfemur -14.3989 -0.00524908 -14.2608
ltibia 39.0491
lfoot -16.8985 3.97473
ltoes -11.6177
1282
root -3.18024 17.7535 -4.65852 4.84101 -48.7912 -1.39369
lowerback 6.6328 -1.5023 -2.01884
upperback 1.56111 -2.09022 3.445
thorax -1.90301 -1.05075 4.8735
lowerneck -21.3288 -1.88671 -9.16125
upperneck 25.3439 -2.55865 9.90124
head 12.1355 -0.794002 4.89291
rclavicle 8.94531e-015 -1.59028e-015
rhumerus 56.6422 -31.4924 -26.2698
rradius 54.4672
rwrist 6.55895
rhand -44.1675 1.84805
rfingers 7.12502
rthumb -16.9825 -27.4296
lclavicle 8.94531e-015 -1.59028e-015
lhumerus 47.7403 30.6115 49.4923
lradius 51.3039
lwrist 16.6339
lhand -24.5719 25.5855
lfingers 7.12502
lthumb 1.92501 55.5566
rfemur -15.671 -0.501795 19.4344
rtibia 33.4506
rfoot -20.3018 -7.2173
rtoes 3.93545
lfemur -15.3271 -0.158762 -14.5503
ltibia 39.5962
lfoot -16.6524 3.0525
ltoes -7.76036
1283
root -3.20781 17.7596 -4.66626 4.75226 -49.263 -1.24485
lowerback 6.72566 -1.36219 -1.95943
upperback 1.70767 -1.90385 3.49396
thorax -1.82193 -0.962866 4.87689
lowerneck -21.4821 -1.8905 -9.3242
upperneck 25.4618 -2.50095 9.90622
head 12.2077 -0.781435 4.94026
rclavicle -2.92213e-014 -2.14687e-014
rhumerus 56.123 -29.9996 -25.8385
rradius 54.2543
rwrist 6.42355
rhand -43.5418 1.71498
rfingers 7.12502
rthumb -16.3801 -27.6134
lclavicle -2.92213e-014 -2.14687e-014
lhumerus 46.1857 28.6655 49.1944
lradius 51.218
lwrist 16.551
lhand -25.1077 25.6433
lfingers 7.12502
lthumb 1.40756 55.6184
rfemur -15.6796 -0.190273 19.3865
rtibia 33.3984
rfoot -20.197 -7.15234
rtoes 3.84587
lfemur -16.1138 -0.0017587 -14.9096
ltibia 40.063
lfoot -16.544 2.7757
ltoes -7.20372
1284
root -3.23562 17.763 -4.673 4.83677 -49.741 -1.25363
lowerback 6.81513 -1.24479 -1.82049
upperback 1.81513 -1.74096 3.5985
thorax -1.77762 -0.885764 4.89569
lowerneck -21.3756 -1.75493 -8.71799
upperneck 25.2708 -2.21767 8.92161
head 12.0586 -0.719906 4.48606
rclavicle 3.97569e-014 -3.18055e-014
rhumerus 55.7097 -28.4571 -25.6345
rradius 54.028
rwrist 6.18488
rhand -42.5625 2.18733
rfingers 7.12502
rthumb -15.437 -27.2162
lclavicle 3.97569e-014 -3.18055e-014
lhumerus 44.5684 26.7275 49.0233
lradius 51.1287
lwrist 16.3423
lhand -25.5282 25.3797
lfingers 7.12502
lthumb 1.00138 55.3571
rfemur -15.7568 -0.155492 19.4629
rtibia 33.3193
rfoot -19.961 -6.9902
rtoes 3.31726
lfemur -16.9132 0.373344 -15.2215
ltibia 40.4573
lfoot -16.7138 3.20117
ltoes -11.4982
